<svg width="373" height="208" viewBox="0 0 373 208" fill="none" xmlns="http://www.w3.org/2000/svg">
<path d="M311.412 207.132C311.412 207.132 367.037 182.391 365.742 132.476C364.449 82.5602 311.731 59.3488 275.942 90.1667C240.152 120.984 216.99 95.1416 198.448 69.0984C179.907 43.0558 138.544 10.189 84.2753 25.3762C27.4258 41.2852 9.9321 98.865 15.5631 137.289C19.6079 164.888 34.4007 188.288 54.5589 206.268C55.2145 206.853 55.8856 207.431 56.5724 208L311.412 207.132" fill="#E2F5ED"/>
<path d="M65.7517 100.681H38.145V136.21H65.7517V100.681Z" fill="#B9E5D1"/>
<path d="M255.978 82.2788H207.854V130.409H255.978V82.2788Z" fill="#B9E5D1"/>
<path d="M128.265 88.3422H100.658V123.871H128.265V88.3422Z" fill="#B9E5D1"/>
<path d="M180.497 107.571H152.891V143.099H180.497V107.571Z" fill="#B9E5D1"/>
<path d="M371.676 168.276H10.5383V121.657H371.676V168.276Z" fill="#B9E5D1"/>
<path d="M38.1451 86.1278H10.5383V121.657H38.1451V86.1278Z" fill="#B9E5D1"/>
<path d="M156.817 53.6682C156.817 63.6066 148.762 71.6627 138.825 71.6627C128.888 71.6627 120.832 63.6066 120.832 53.6682C120.832 43.7298 128.888 35.6737 138.825 35.6737C148.762 35.6737 156.817 43.7298 156.817 53.6682" fill="#E9EDFD"/>
<path d="M142.99 45.4206C142.99 47.7207 141.125 49.5856 138.825 49.5856C136.525 49.5856 134.661 47.7207 134.661 45.4206C134.661 43.1205 136.525 41.2556 138.825 41.2556C141.125 41.2556 142.99 43.1205 142.99 45.4206Z" fill="#E2F5ED"/>
<path d="M159.85 168.276H117.8V52.1968H159.85V168.276" fill="#8AD4B5"/>
<path d="M131.856 76.9637H123.495V60.5107H131.856V76.9637Z" fill="#B9E5D1"/>
<path d="M152.891 76.9637H144.531V60.5107H152.891V76.9637Z" fill="#B9E5D1"/>
<path d="M131.856 102.047H123.495V85.5947H131.856V102.047Z" fill="#B9E5D1"/>
<path d="M152.891 102.047H144.531V85.5947H152.891V102.047Z" fill="#B9E5D1"/>
<path d="M131.856 127.132H123.495V110.679H131.856V127.132Z" fill="#B9E5D1"/>
<path d="M152.891 127.132H144.531V110.679H152.891V127.132Z" fill="#B9E5D1"/>
<path d="M131.856 152.216H123.495V135.763H131.856V152.216Z" fill="#B9E5D1"/>
<path d="M152.891 152.216H144.531V135.763H152.891V152.216Z" fill="#B9E5D1"/>
<path d="M215.482 168.276H169.75V25.3675H215.482V168.276Z" fill="#8AD4B5"/>
<path d="M180.496 41.7683H174.26V35.5318H180.496V41.7683Z" fill="#B9E5D1"/>
<path d="M195.734 41.7683H189.498V35.5318H195.734V41.7683Z" fill="#B9E5D1"/>
<path d="M210.972 41.7683H204.737V35.5318H210.972V41.7683Z" fill="#B9E5D1"/>
<path d="M180.496 52.7845H174.26V46.548H180.496V52.7845Z" fill="#B9E5D1"/>
<path d="M195.734 52.7845H189.498V46.548H195.734V52.7845Z" fill="#B9E5D1"/>
<path d="M210.972 52.7845H204.737V46.548H210.972V52.7845Z" fill="#B9E5D1"/>
<path d="M180.496 63.8007H174.26V57.5642H180.496V63.8007Z" fill="#B9E5D1"/>
<path d="M195.734 63.8007H189.498V57.5642H195.734V63.8007Z" fill="#B9E5D1"/>
<path d="M210.972 63.8007H204.737V57.5642H210.972V63.8007Z" fill="#B9E5D1"/>
<path d="M180.496 74.8173H174.26V68.5803H180.496V74.8173Z" fill="#B9E5D1"/>
<path d="M195.734 74.8173H189.498V68.5803H195.734V74.8173Z" fill="#B9E5D1"/>
<path d="M210.972 74.8173H204.737V68.5803H210.972V74.8173Z" fill="#B9E5D1"/>
<path d="M180.496 85.8329H174.26V79.5965H180.496V85.8329Z" fill="#B9E5D1"/>
<path d="M195.734 85.8329H189.498V79.5965H195.734V85.8329Z" fill="#B9E5D1"/>
<path d="M210.972 85.8329H204.737V79.5965H210.972V85.8329Z" fill="#B9E5D1"/>
<path d="M180.496 96.8491H174.26V90.6121H180.496V96.8491Z" fill="#B9E5D1"/>
<path d="M195.734 96.8491H189.498V90.6121H195.734V96.8491Z" fill="#B9E5D1"/>
<path d="M210.972 96.8491H204.737V90.6121H210.972V96.8491Z" fill="#B9E5D1"/>
<path d="M180.496 107.865H174.26V101.629H180.496V107.865Z" fill="#B9E5D1"/>
<path d="M195.734 107.865H189.498V101.629H195.734V107.865Z" fill="#B9E5D1"/>
<path d="M210.972 107.865H204.737V101.629H210.972V107.865Z" fill="#B9E5D1"/>
<path d="M180.496 118.881H174.26V112.645H180.496V118.881Z" fill="#B9E5D1"/>
<path d="M195.734 118.881H189.498V112.645H195.734V118.881Z" fill="#B9E5D1"/>
<path d="M210.972 118.881H204.737V112.645H210.972V118.881Z" fill="#B9E5D1"/>
<path d="M180.496 129.898H174.26V123.661H180.496V129.898Z" fill="#B9E5D1"/>
<path d="M195.734 129.898H189.498V123.661H195.734V129.898Z" fill="#B9E5D1"/>
<path d="M210.972 129.898H204.737V123.661H210.972V129.898Z" fill="#B9E5D1"/>
<path d="M180.496 140.914H174.26V134.677H180.496V140.914Z" fill="#B9E5D1"/>
<path d="M195.734 140.914H189.498V134.677H195.734V140.914Z" fill="#B9E5D1"/>
<path d="M210.972 140.914H204.737V134.677H210.972V140.914Z" fill="#B9E5D1"/>
<path d="M180.496 151.93H174.26V145.693H180.496V151.93Z" fill="#B9E5D1"/>
<path d="M195.734 151.93H189.498V145.693H195.734V151.93Z" fill="#B9E5D1"/>
<path d="M210.972 151.93H204.737V145.693H210.972V151.93Z" fill="#B9E5D1"/>
<path d="M361.281 207.754H315.549V64.8461H361.281V207.754" fill="#8AD4B5"/>
<path d="M326.295 81.2468H320.059V75.0103H326.295V81.2468Z" fill="#B9E5D1"/>
<path d="M341.533 81.2468H335.297V75.0103H341.533V81.2468Z" fill="#B9E5D1"/>
<path d="M356.771 81.2468H350.535V75.0103H356.771V81.2468Z" fill="#B9E5D1"/>
<path d="M326.295 92.2635H320.059V86.0271H326.295V92.2635Z" fill="#B9E5D1"/>
<path d="M341.533 92.2635H335.297V86.0271H341.533V92.2635Z" fill="#B9E5D1"/>
<path d="M356.771 92.2635H350.535V86.0271H356.771V92.2635Z" fill="#B9E5D1"/>
<path d="M326.295 103.28H320.059V97.0426H326.295V103.28Z" fill="#B9E5D1"/>
<path d="M341.533 103.28H335.297V97.0426H341.533V103.28Z" fill="#B9E5D1"/>
<path d="M356.771 103.28H350.535V97.0426H356.771V103.28Z" fill="#B9E5D1"/>
<path d="M326.295 114.295H320.059V108.059H326.295V114.295Z" fill="#B9E5D1"/>
<path d="M341.533 114.295H335.297V108.059H341.533V114.295Z" fill="#B9E5D1"/>
<path d="M356.771 114.295H350.535V108.059H356.771V114.295Z" fill="#B9E5D1"/>
<path d="M326.295 125.312H320.059V119.075H326.295V125.312Z" fill="#B9E5D1"/>
<path d="M341.533 125.312H335.297V119.075H341.533V125.312Z" fill="#B9E5D1"/>
<path d="M356.771 125.312H350.535V119.075H356.771V125.312Z" fill="#B9E5D1"/>
<path d="M326.295 136.328H320.059V130.091H326.295V136.328Z" fill="#B9E5D1"/>
<path d="M341.533 136.328H335.297V130.091H341.533V136.328Z" fill="#B9E5D1"/>
<path d="M356.771 136.328H350.535V130.091H356.771V136.328Z" fill="#B9E5D1"/>
<path d="M326.295 147.344H320.059V141.107H326.295V147.344" fill="#B9E5D1"/>
<path d="M341.533 147.344H335.297V141.107H341.533V147.344" fill="#B9E5D1"/>
<path d="M356.771 147.344H350.535V141.107H356.771V147.344" fill="#B9E5D1"/>
<path d="M326.295 158.36H320.059V152.123H326.295V158.36Z" fill="#B9E5D1"/>
<path d="M341.533 158.36H335.297V152.123H341.533V158.36Z" fill="#B9E5D1"/>
<path d="M356.771 158.36H350.535V152.123H356.771V158.36Z" fill="#B9E5D1"/>
<path d="M326.295 169.376H320.059V163.14H326.295V169.376" fill="#B9E5D1"/>
<path d="M341.533 169.376H335.297V163.14H341.533V169.376Z" fill="#B9E5D1"/>
<path d="M356.771 169.376H350.535V163.14H356.771V169.376Z" fill="#B9E5D1"/>
<path d="M107.795 168.276H51.2319V25.3675H107.795V168.276Z" fill="#8AD4B5"/>
<path d="M60.9858 122.26H57.1685V48.3418H60.9858V122.26Z" fill="#B9E5D1"/>
<path d="M71.2035 122.26H67.3867V48.3418H71.2035V122.26Z" fill="#B9E5D1"/>
<path d="M81.422 122.26H77.6047V48.3418H81.422V122.26Z" fill="#B9E5D1"/>
<path d="M91.6405 122.26H87.8232V48.3418H91.6405V122.26Z" fill="#B9E5D1"/>
<path d="M101.859 122.26H98.0417V48.3418H101.859V122.26Z" fill="#B9E5D1"/>
<path d="M107.795 41.1812H51.2319V33.2743H107.795V41.1812Z" fill="#E9EDFD"/>
<path d="M5.79922 86.3618C5.79922 87.9858 4.50098 89.3024 2.89972 89.3024C1.29824 89.3024 0 87.9858 0 86.3618C0 84.7379 1.29824 83.4212 2.89972 83.4212C4.50098 83.4212 5.79922 84.7379 5.79922 86.3618V86.3618Z" stroke="#B9E5D1" stroke-width="1.70287" stroke-miterlimit="10"/>
<path d="M350.151 23.2185C350.151 24.8424 348.853 26.1591 347.252 26.1591C345.65 26.1591 344.352 24.8424 344.352 23.2185C344.352 21.5945 345.65 20.2779 347.252 20.2779C348.853 20.2779 350.151 21.5945 350.151 23.2185V23.2185Z" stroke="#B9E5D1" stroke-width="1.70287" stroke-miterlimit="10"/>
<path d="M213.799 53.9221C213.799 55.6059 212.454 56.9711 210.794 56.9711C209.134 56.9711 207.788 55.6059 207.788 53.9221C207.788 52.2383 209.134 50.8737 210.794 50.8737C212.454 50.8737 213.799 52.2383 213.799 53.9221Z" stroke="#B9E5D1" stroke-width="1.70287" stroke-miterlimit="10"/>
<path d="M41.3108 13.658H62.4141" stroke="#B9E5D1" stroke-width="1.33136" stroke-miterlimit="10"/>
<path d="M353.295 78.6572H371.605" stroke="#B9E5D1" stroke-width="1.33136" stroke-miterlimit="10"/>
<path d="M199.66 0H231.552" stroke="#B9E5D1" stroke-width="1.33136" stroke-miterlimit="10"/>
<path d="M254.735 207.702H315.168C322.882 207.702 329.135 201.448 329.135 193.733V32.8748C329.135 25.16 322.882 18.9057 315.168 18.9057H254.735C247.022 18.9057 240.768 25.16 240.768 32.8748V193.733C240.768 201.448 247.022 207.702 254.735 207.702Z" fill="#008955"/>
<path d="M245.568 207.702H306C313.714 207.702 319.967 201.448 319.967 193.733V32.8748C319.967 25.16 313.714 18.9057 306 18.9057H245.568C237.854 18.9057 231.6 25.16 231.6 32.8748V193.733C231.6 201.448 237.854 207.702 245.568 207.702Z" fill="#007848"/>
<path d="M245.484 203.47H306.083C311.394 203.47 315.698 199.164 315.698 193.853V33.6394C315.698 28.3281 311.394 24.0224 306.083 24.0224H245.484C240.174 24.0224 235.869 28.3281 235.869 33.6394V193.853C235.869 199.164 240.174 203.47 245.484 203.47" fill="white"/>
<path d="M260.97 28.7454H289.942C291.377 28.7454 292.539 27.5824 292.539 26.1477V21.9109H258.373V26.1477C258.373 27.5824 259.535 28.7454 260.97 28.7454" fill="#007848"/>
<path d="M267.603 24.3917H280.997" stroke="#312220" stroke-width="1.1578" stroke-miterlimit="10" stroke-linecap="round" stroke-linejoin="round"/>
<path d="M311.392 109.405H240.239V56.1089H311.392V109.405Z" fill="#E2F5ED"/>
<path d="M315.869 60.2093L227.459 126.967" stroke="white" stroke-width="6.83467" stroke-miterlimit="10"/>
<path d="M336.907 71.2319L248.498 137.99" stroke="white" stroke-width="6.83467" stroke-miterlimit="10"/>
<path d="M294.421 49.5188L216.27 108.531" stroke="white" stroke-width="6.83467" stroke-miterlimit="10"/>
<path d="M245.279 50.9934L278.033 99.1583C279.144 100.791 278.854 102.996 277.359 104.287L266.846 113.363C262.052 117.502 261.39 122.01 265.347 126.955L282.316 150.845" stroke="white" stroke-width="6.83467" stroke-miterlimit="10"/>
<path d="M299.851 50.844C299.851 44.0597 292.691 38.9485 285.516 42.6568C284.401 43.2332 282.985 44.6253 282.377 45.7241C280.499 49.1214 280.669 52.4717 282.018 55.119H282.008L282.084 55.257C282.119 55.3223 282.155 55.3859 282.191 55.4501L290.419 70.3304L298.661 55.4258C298.689 55.3762 298.717 55.326 298.744 55.2754L298.782 55.2069H298.777C299.46 53.9016 299.851 52.4194 299.851 50.844" fill="#008955"/>
<path d="M294.597 50.7443C294.597 53.0524 292.727 54.9233 290.419 54.9233C288.111 54.9233 286.24 53.0524 286.24 50.7443C286.24 48.4361 288.111 46.5653 290.419 46.5653C292.727 46.5653 294.597 48.4361 294.597 50.7443Z" fill="white"/>
<path d="M204.945 162.812H195.177C185.587 162.812 177.813 172.874 177.813 185.286C177.813 197.699 185.587 207.761 195.177 207.761H204.945C214.535 207.761 222.31 197.699 222.31 185.286C222.31 172.874 214.535 162.812 204.945 162.812" fill="black"/>
<path d="M326.765 162.812H316.996C307.407 162.812 299.632 172.874 299.632 185.286C299.632 197.699 307.407 207.761 316.996 207.761H326.765C336.355 207.761 344.129 197.699 344.129 185.286C344.129 172.874 336.355 162.812 326.765 162.812Z" fill="black"/>
<path d="M280.367 157.367H208.358V189.577H280.367V157.367Z" fill="black"/>
<path d="M264.686 185.749C264.686 197.873 257.093 207.702 247.726 207.702C238.358 207.702 230.764 197.873 230.764 185.749C230.764 173.625 238.358 163.796 247.726 163.796C257.093 163.796 264.686 173.625 264.686 185.749Z" fill="black"/>
<path d="M238.184 207.702H247.726L257.479 197.946L247.726 163.796H238.184V207.702Z" fill="black"/>
<path d="M255.145 185.749C255.145 197.873 247.551 207.702 238.184 207.702C228.816 207.702 221.222 197.873 221.222 185.749C221.222 173.625 228.816 163.796 238.184 163.796C247.551 163.796 255.145 173.625 255.145 185.749Z" fill="#007848"/>
<path d="M245.2 185.286C245.2 191.42 241.534 196.393 237.012 196.393C232.489 196.393 228.823 191.42 228.823 185.286C228.823 179.152 232.489 174.181 237.012 174.181C241.534 174.181 245.2 179.152 245.2 185.286Z" fill="#B8B8C2"/>
<path d="M249.012 185.286C249.012 191.42 245.346 196.393 240.824 196.393C236.301 196.393 232.635 191.42 232.635 185.286C232.635 179.152 236.301 174.181 240.824 174.181C245.346 174.181 249.012 179.152 249.012 185.286Z" fill="white"/>
<path d="M158.549 157.367H86.5396V189.577H158.549V157.367Z" fill="black"/>
<path d="M142.867 185.749C142.867 197.873 135.273 207.702 125.905 207.702C116.538 207.702 108.945 197.873 108.945 185.749C108.945 173.625 116.538 163.796 125.905 163.796C135.273 163.796 142.867 173.625 142.867 185.749Z" fill="black"/>
<path d="M116.364 207.702H125.906L135.66 197.946L125.906 163.796H116.364V207.702Z" fill="black"/>
<path d="M133.326 185.749C133.326 197.873 125.732 207.702 116.364 207.702C106.997 207.702 99.4033 197.873 99.4033 185.749C99.4033 173.625 106.997 163.796 116.364 163.796C125.732 163.796 133.326 173.625 133.326 185.749Z" fill="#007848"/>
<path d="M123.38 185.286C123.38 191.42 119.715 196.393 115.192 196.393C110.67 196.393 107.004 191.42 107.004 185.286C107.004 179.152 110.67 174.181 115.192 174.181C119.715 174.181 123.38 179.152 123.38 185.286Z" fill="#B8B8C2"/>
<path d="M127.193 185.286C127.193 191.42 123.527 196.393 119.004 196.393C114.482 196.393 110.816 191.42 110.816 185.286C110.816 179.152 114.482 174.181 119.004 174.181C123.527 174.181 127.193 179.152 127.193 185.286Z" fill="white"/>
<path d="M75.1006 189.576V151.438C75.1006 145.998 79.0899 141.363 84.4765 140.614C89.2048 139.958 95.2583 139.385 101.524 139.501C101.524 139.501 137.727 117.244 151.003 117.244L234.173 116.816C245.306 116.664 256.315 119.173 266.283 124.134L303.323 142.568L352.57 153.352C352.57 153.352 362.771 156.12 364.957 162.752C367.143 169.384 366.415 176.671 366.415 176.671H258.251C258.251 176.671 253.376 161.343 237.779 161.343C222.181 161.343 217.957 180.152 218.932 189.576H137.21C137.21 189.576 137.535 161.627 116.413 162.602C95.2912 163.577 96.916 189.576 96.916 189.576H75.1006" fill="#008955"/>
<path d="M75.9031 176.671C73.0534 176.671 70.7424 178.98 70.7386 181.829L70.7354 184.415C70.7354 187.265 73.0459 189.576 75.8966 189.576H96.9158C96.9158 189.576 96.8085 182.542 98.6721 176.671H75.9031" fill="#005932"/>
<path d="M202.349 106.305H170.072C167.383 106.305 165.203 108.485 165.203 111.174V117.245H207.217V111.174C207.217 108.485 205.037 106.305 202.349 106.305Z" fill="black"/>
<path d="M208.628 106.305H176.351C173.662 106.305 171.483 108.485 171.483 111.174V117.245H213.496V111.174C213.496 108.485 211.316 106.305 208.628 106.305Z" fill="#005932"/>
<path d="M183.039 109.705H181.038V108.756H186.161V109.705H184.16V114.793H183.039V109.705Z" fill="black"/>
<path d="M190.898 112.517L189.76 109.877L188.63 112.517H190.898ZM191.269 113.396H188.251L187.656 114.793H186.5L189.217 108.756H190.32L193.046 114.793H191.873L191.269 113.396" fill="black"/>
<path d="M197.965 114.793L196.327 112.499L194.705 114.793H193.429L195.672 111.714L193.549 108.756H194.818L196.361 110.903L197.887 108.756H199.104L196.991 111.671L199.259 114.793H197.965" fill="black"/>
<path d="M200.59 108.756H201.711V114.793H200.59V108.756Z" fill="black"/>
<path d="M218.612 141.037L185.745 122.547C182.954 120.977 179.805 120.152 176.601 120.152H157.03C151.966 120.152 147.005 121.583 142.718 124.281L111.493 142.002C110.601 142.508 110.96 143.869 111.985 143.869H217.87C219.426 143.869 219.968 141.801 218.612 141.037Z" fill="black"/>
<path d="M111.286 142.771V156.034C111.286 156.034 139.961 150.258 142.867 183.124H208.358C208.358 183.124 206.608 150.997 218.7 143.16" stroke="black" stroke-width="1.04803" stroke-miterlimit="10" stroke-linecap="round" stroke-linejoin="round"/>
<path d="M164.733 143.869C164.733 143.869 157.901 146.9 161.214 183.124" stroke="black" stroke-width="1.04803" stroke-miterlimit="10" stroke-linecap="round" stroke-linejoin="round"/>
<path d="M175.267 150.289H168.686C167.966 150.289 167.383 149.705 167.383 148.985V148.381C167.383 147.661 167.966 147.077 168.686 147.077H175.267C175.988 147.077 176.571 147.661 176.571 148.381V148.985C176.571 149.705 175.988 150.289 175.267 150.289Z" fill="black"/>
<path d="M125.834 150.289H119.253C118.533 150.289 117.949 149.705 117.949 148.985V148.381C117.949 147.661 118.533 147.077 119.253 147.077H125.834C126.554 147.077 127.138 147.661 127.138 148.381V148.985C127.138 149.705 126.554 150.289 125.834 150.289Z" fill="black"/>
<path d="M198.062 121.26L235.816 144H300L256.822 120.046C253.208 118.042 249.239 117 245.217 117H198.997C196.919 117 196.227 120.154 198.062 121.26" fill="black"/>
<path d="M245.2 147.077H304.4" stroke="black" stroke-width="1.04803" stroke-miterlimit="10" stroke-linecap="round" stroke-linejoin="round"/>
<path d="M210.42 120.152L252.178 143.869H266.113L224.368 120.152H210.42Z" fill="#5E5E5E"/>
<path d="M236.432 120.152L278.191 143.869H282.72L240.975 120.152H236.432Z" fill="#5E5E5E"/>
<path d="M360.07 189.576H263.402C260.551 189.576 258.24 187.265 258.24 184.415L258.251 176.671H366.415L366.328 183.318C366.328 186.774 363.527 189.576 360.07 189.576" fill="#005932"/>
<path d="M334.976 180.379H317.428V175.069H334.976V180.379Z" fill="white"/>
<path d="M296.616 164.482H348.339" stroke="black" stroke-width="1.04803" stroke-miterlimit="10" stroke-linecap="round" stroke-linejoin="round"/>
<path d="M306.056 168.432H340.05" stroke="black" stroke-width="1.04803" stroke-miterlimit="10" stroke-linecap="round" stroke-linejoin="round"/>
<path d="M306.056 172.366H340.05" stroke="black" stroke-width="1.04803" stroke-miterlimit="10" stroke-linecap="round" stroke-linejoin="round"/>
<path d="M298.774 172.961H276.198C274.29 172.961 272.744 171.415 272.744 169.507V166.266C272.744 164.358 274.29 162.812 276.198 162.812H298.774C300.682 162.812 302.228 164.358 302.228 166.266V169.507C302.228 171.415 300.682 172.961 298.774 172.961Z" fill="white"/>
<path d="M364.991 162.812H347.867C345.96 162.812 344.413 164.358 344.413 166.266V169.507C344.413 171.415 345.96 172.961 347.867 172.961H366.53C366.682 166.146 365.221 163.229 364.991 162.812" fill="white"/>
<path d="M272.744 169.507H302.228" stroke="black" stroke-width="1.04803" stroke-miterlimit="10" stroke-linecap="round" stroke-linejoin="round"/>
<path d="M344.413 169.507H366.414" stroke="black" stroke-width="1.04803" stroke-miterlimit="10" stroke-linecap="round" stroke-linejoin="round"/>
<path d="M162.112 23.3203C162.112 13.2682 151.502 5.69406 140.871 11.1887C139.219 12.0427 137.12 14.1061 136.221 15.7338C133.439 20.7674 133.689 25.7315 135.688 29.6539H135.674L135.787 29.8588C135.838 29.9553 135.892 30.0502 135.945 30.1451L148.136 52.193L160.348 30.1095C160.389 30.0351 160.431 29.9617 160.471 29.8863L160.527 29.7849H160.52C161.532 27.8504 162.112 25.6544 162.112 23.3203" fill="#008955"/>
<path d="M154.328 23.1721C154.328 26.592 151.555 29.3649 148.136 29.3649C144.717 29.3649 141.945 26.592 141.945 23.1721C141.945 19.7528 144.717 16.9799 148.136 16.9799C151.555 16.9799 154.328 19.7528 154.328 23.1721Z" fill="white"/>
<path d="M97.0339 196.809H105.753L120.171 204.523L95.3789 204.228L97.0339 196.809Z" fill="#101010"/>
<path d="M95.2925 207.491L95.3787 204.228L120.17 204.523L120.085 207.786L95.2925 207.491Z" fill="white"/>
<path d="M111.778 199.65L108.922 200.431" stroke="white" stroke-width="1.94209" stroke-miterlimit="10" stroke-linecap="round" stroke-linejoin="round"/>
<path d="M108.986 198.217L106.129 198.998" stroke="white" stroke-width="1.94209" stroke-miterlimit="10" stroke-linecap="round" stroke-linejoin="round"/>
<path d="M106.675 184.516H97.7887L97.0339 196.809H105.92L106.675 184.516Z" fill="#EBB28B"/>
<path d="M112.49 103.741L107.01 192.857H94.6365L96.7745 103.741H112.49Z" fill="#B9E5D1"/>
<path d="M76.9963 196.809H85.715L100.134 204.523L75.3413 204.228L76.9963 196.809Z" fill="#101010"/>
<path d="M75.2559 207.491L75.3416 204.228L100.134 204.523L100.048 207.786L75.2559 207.491" fill="white"/>
<path d="M91.7411 199.65L88.885 200.431" stroke="white" stroke-width="1.94209" stroke-miterlimit="10" stroke-linecap="round" stroke-linejoin="round"/>
<path d="M88.9492 198.217L86.0925 198.998" stroke="white" stroke-width="1.94209" stroke-miterlimit="10" stroke-linecap="round" stroke-linejoin="round"/>
<path d="M87.5205 184.516H78.6341L76.9963 196.809H85.8833L87.5205 184.516Z" fill="#EBB28B"/>
<path d="M86.2881 103.741L74.1726 192.857H87.6989L105.309 103.741H86.2881" fill="#B9E5D1"/>
<path d="M95.5957 152.897L102.51 117.904L107.558 114.614" stroke="#171717" stroke-width="0.850184" stroke-miterlimit="10" stroke-linecap="round" stroke-linejoin="round"/>
<path d="M84.5125 116.804L92.0684 110.855" stroke="#171717" stroke-width="0.850184" stroke-miterlimit="10" stroke-linecap="round" stroke-linejoin="round"/>
<path d="M114.818 69.871L128.584 87.9486C130.106 89.6502 130.201 92.1951 128.809 94.005C127.054 96.2868 123.689 96.4922 121.669 94.4407L106.875 77.3287C104.846 75.2681 104.78 71.9819 106.724 69.8409H106.725C108.898 67.4486 112.663 67.4632 114.818 69.871" fill="#EBB28B"/>
<path d="M108.076 63.0135C108.076 63.0135 114.806 63.8535 119.958 73.842L112.043 83.3312L108.076 63.0135Z" fill="#007848"/>
<path d="M119.146 88.6905L138.017 76.8537L141.774 80.733L128.093 94.7534L119.146 88.6905Z" fill="#EBB28B"/>
<path d="M141.04 69.4575L150.397 72.1878C150.397 72.1878 150.397 79.4407 141.766 80.7519C141.294 80.8236 139.17 80.0105 138.804 79.6849L137.368 75.59C136.859 74.9187 136.902 73.9789 137.471 73.3573L141.04 69.4575" fill="#EBB28B"/>
<path d="M140.266 70.6641L143.576 66.3179C144.068 65.7114 144.909 65.5841 145.466 66.0311C146 66.4603 146.087 67.2712 145.665 67.8907L142.608 72.658L140.266 70.6641" fill="#E9B0A0"/>
<path d="M144.267 74.1315L148.244 70.2064C148.794 69.6549 149.61 69.5982 150.078 70.0797C150.527 70.5418 150.5 71.3397 150.015 71.9096L146.221 76.2666L144.267 74.1315" fill="#E9B0A0"/>
<path d="M142.736 71.4502L146.493 67.7381C147.047 67.1909 147.888 67.1671 148.384 67.6847C148.859 68.1808 148.85 69.0046 148.364 69.5739L144.805 73.7401L142.736 71.4502" fill="#E9B0A0"/>
<path d="M149.06 60.0507L150.55 60.1467V69.9276L145.321 78.1154L143.732 77.9854L146.537 67.7004L149.06 60.0507" fill="#36438D"/>
<path d="M140.297 73.6269L144.666 77.7466C145.066 78.2437 145.825 78.2372 146.216 77.7331L155.73 65.8565C155.963 65.5561 155.959 65.1356 155.721 64.8396L151.137 60.4535C150.805 60.04 150.174 60.0459 149.849 60.4648L140.286 72.4046C140.006 72.7653 140.01 73.271 140.297 73.6269" fill="#050907"/>
<path d="M138.843 73.5303L143.213 77.6501C143.612 78.1472 144.371 78.1402 144.761 77.636L154.276 65.7599C154.509 65.4596 154.505 65.0391 154.267 64.7431L149.683 60.357C149.351 59.9435 148.719 59.9494 148.395 60.3683L138.832 72.3081C138.552 72.6688 138.556 73.1745 138.843 73.5303" fill="white"/>
<path d="M138.377 76.9211C137.865 76.6694 136.586 75.3355 136.812 73.3136C137.109 70.6529 138.484 68.6375 138.484 68.6375C138.94 67.7807 139.47 67.3661 140.212 67.4696C141.016 67.5823 141.532 68.4385 141.388 69.0332L140.55 70.8912C140.55 70.8912 141.472 73.2468 139.542 76.8171L138.377 76.9211Z" fill="#EBB28B"/>
<path d="M95.4138 61.0973C95.4138 61.0973 90.3237 62.2867 86.6946 64.1171C84.4099 65.2698 84.1565 67.7602 84.4439 70.3029L86.2881 103.741H112.49L114.323 71.4362C114.575 67.8923 112.494 64.4191 109.13 63.276C105.362 61.995 102.982 60.7754 100.977 60.6589L95.4138 61.0973" fill="#007848"/>
<path d="M113.767 81.2641L114.323 71.4363" stroke="#171717" stroke-width="0.850184" stroke-miterlimit="10" stroke-linecap="round" stroke-linejoin="round"/>
<path d="M95.4139 61.0973L92.3928 61.9276C92.3928 61.9276 94.6365 66.2517 102.787 65.52C108.503 65.0073 106.2 62.2106 106.2 62.2106L103.356 61.1814L95.4139 61.0973Z" fill="#EBB28B"/>
<path d="M70.6534 80.2942L84.1829 100.216L80.5392 104.202L65.6042 89.5667L70.6534 80.2942" fill="#EBB28B"/>
<path d="M96.6145 101.122L90.8273 98.1792L91.3955 96.9089C91.6025 96.4469 91.4742 95.9029 91.0828 95.5815C90.6785 95.2494 90.099 95.2402 89.6845 95.5594L83.9846 100.036L80.5393 104.202C83.6655 106.879 85.7087 106.846 86.886 106.328C87.0235 106.373 87.1593 106.424 87.299 106.463L92.1087 107.843C92.5535 108.035 93.071 107.847 93.2888 107.415C93.4473 107.101 93.5034 106.598 92.5778 106.128L93.5034 106.598C93.974 106.801 94.5206 106.596 94.74 106.132C94.9471 105.723 94.6931 105.182 94.1497 104.829L94.8581 105.107C95.3713 105.328 95.9756 105.076 96.1681 104.532C96.3341 104.061 96.0851 103.541 95.6392 103.315L94.6166 102.798L95.8312 103.092C96.3902 103.289 97.0139 102.991 97.1972 102.405C97.3546 101.902 97.084 101.361 96.6145 101.122" fill="#EBB28B"/>
<path d="M94.9243 102.943L91.5027 101.328" stroke="#171717" stroke-width="0.552121" stroke-miterlimit="10" stroke-linecap="round" stroke-linejoin="round"/>
<path d="M94.0043 104.768L90.7056 103.394" stroke="#171717" stroke-width="0.552121" stroke-miterlimit="10" stroke-linecap="round" stroke-linejoin="round"/>
<path d="M92.8841 106.249L90.0889 105.146" stroke="#171717" stroke-width="0.552121" stroke-miterlimit="10" stroke-linecap="round" stroke-linejoin="round"/>
<path d="M89.63 74.8028L72.4249 89.6437C70.8195 91.2671 68.2852 91.5162 66.3941 90.2363C64.0102 88.6231 63.6011 85.2754 65.5256 83.135L81.7043 67.3262C83.6375 65.1755 86.9135 64.9102 89.168 66.7213C91.6877 68.7453 91.9028 72.5048 89.63 74.8028" fill="#EBB28B"/>
<path d="M90.4058 62.5772C90.4058 62.5772 81.4267 64.3322 74.0605 73.6721L81.8671 83.8499L93.0597 75.8336L90.4058 62.5772" fill="#007848"/>
<path d="M85.6667 81.1282L92.1596 76.4779" stroke="#171717" stroke-width="0.850184" stroke-miterlimit="10" stroke-linecap="round" stroke-linejoin="round"/>
<path d="M109.332 33.0258C109.332 33.0258 112.363 35.7351 109.848 41.8179L105.686 33.6054L109.332 33.0258Z" fill="#008955"/>
<path d="M92.3496 33.7596C92.3496 33.7596 88.8094 33.3746 88.0057 38.8353C87.2019 44.2964 91.2143 47.5605 95.6683 50.2008L92.3496 33.7596Z" fill="#008955"/>
<path d="M109.888 40.7396C109.888 46.4801 105.34 51.1335 99.7306 51.1335C94.1208 51.1335 89.573 46.4801 89.573 40.7396C89.573 34.9997 94.1208 30.3462 99.7306 30.3462C105.34 30.3462 109.888 34.9997 109.888 40.7396Z" fill="#008955"/>
<path d="M106.292 45.2168C106.746 46.5658 108.207 47.2915 109.555 46.8381C110.904 46.3846 111.63 44.9235 111.176 43.5745C110.723 42.2255 109.262 41.4993 107.913 41.9533C106.564 42.4067 105.839 43.8678 106.292 45.2168Z" fill="#DD8161"/>
<path d="M103.404 51.1967L103.555 62.4102L95.1924 61.0277L95.7999 44.9451L103.404 51.1967" fill="#EBB28B"/>
<path d="M103.485 56.8783L97.6113 51.1335L103.671 52.1978L103.485 56.8783Z" fill="#171717"/>
<path d="M108.675 35.7464C108.675 35.7464 110.937 44.7785 109.915 48.2458C108.894 51.7137 106.202 53.9615 101.705 53.2239C101.705 53.2239 96.5196 53.1247 94.987 45.4772C92.6796 33.9639 103.098 29.7488 108.675 35.7464Z" fill="#EBB28B"/>
<path d="M96.4393 45.4707C96.4393 45.4707 99.7585 37.8469 96.1536 36.3605C95.0722 35.9146 94.4382 35.6881 93.9271 39.5092C93.4155 43.3297 94.7498 43.9551 94.7498 43.9551L96.4393 45.4707" fill="#008955"/>
<path d="M91.8501 46.3463C92.3191 47.7406 93.8286 48.4906 95.2227 48.0221C96.6168 47.553 97.3666 46.0428 96.8982 44.6491C96.4297 43.2548 94.9197 42.5043 93.5256 42.9728C92.1321 43.4419 91.3817 44.9521 91.8501 46.3463Z" fill="#EBB28B"/>
<path d="M93.1504 44.7558C93.1504 44.7558 95.0846 44.1368 95.6685 46.2687" stroke="#171717" stroke-width="0.525888" stroke-miterlimit="10" stroke-linecap="round" stroke-linejoin="round"/>
<path d="M106.819 44.4609L107.397 46.4111C107.425 46.5561 107.335 46.6973 107.192 46.7324L106.537 46.8375" stroke="#1E0B07" stroke-width="0.497083" stroke-miterlimit="10" stroke-linecap="round" stroke-linejoin="round"/>
<path d="M102.753 43.8506C102.732 44.2059 103.003 44.511 103.357 44.5321C103.713 44.5536 104.018 44.283 104.039 43.9277C104.06 43.5729 103.79 43.2677 103.435 43.2462C103.08 43.2251 102.775 43.4958 102.753 43.8506Z" fill="#171717"/>
<path d="M108.138 43.7055C108.118 44.0349 108.369 44.3174 108.699 44.3374C109.028 44.3573 109.311 44.1061 109.331 43.7772C109.35 43.4478 109.099 43.1647 108.77 43.1448C108.441 43.1253 108.158 43.3761 108.138 43.7055Z" fill="#171717"/>
<path d="M104.611 39.4892L99.7585 41.0404C99.7585 41.0404 100.837 39.5583 102.237 39.1183C103.636 38.6783 104.611 39.4892 104.611 39.4892Z" fill="#171717"/>
<path d="M107.333 39.375L109.888 40.1988C109.888 40.1988 109.449 39.1064 108.711 38.8746C107.974 38.6433 107.333 39.375 107.333 39.375" fill="#171717"/>
<path d="M103.396 47.3211C103.396 47.3211 105.183 48.2312 106.969 48.2312C106.969 48.2312 104.539 49.9959 103.396 47.3211Z" fill="white"/>
<path d="M95.0743 36.4479C95.0743 36.4479 97.7735 38.7738 104.456 37.4275C111.137 36.0807 111.401 31.5512 110.596 29.9596C110.596 29.9596 108.137 31.8688 104.086 30.8249C101.826 30.2421 96.7794 28.1183 93.7492 30.3931C92.705 31.1776 92.098 32.478 92.3497 33.7596C92.5443 34.7511 93.2063 35.8834 95.0743 36.4479" fill="#008955"/>
<path d="M64.6625 154.731H47.2693V117.466C47.2693 113.74 50.2887 110.721 54.0133 110.721H57.919C61.6436 110.721 64.6625 113.74 64.6625 117.466V154.731Z" stroke="#101010" stroke-width="3.82461" stroke-miterlimit="10"/>
<path d="M51.105 203.747C51.105 205.977 49.2969 207.786 47.0667 207.786C44.8364 207.786 43.0283 205.977 43.0283 203.747C43.0283 201.517 44.8364 199.708 47.0667 199.708C49.2969 199.708 51.105 201.517 51.105 203.747Z" fill="#101010"/>
<path d="M68.9041 203.747C68.9041 205.977 67.096 207.786 64.8652 207.786C62.635 207.786 60.8269 205.977 60.8269 203.747C60.8269 201.517 62.635 199.708 64.8652 199.708C67.096 199.708 68.9041 201.517 68.9041 203.747Z" fill="#101010"/>
<path d="M69.7759 202.8H42.1561C38.2152 202.8 35.0205 199.605 35.0205 195.664V149.07C35.0205 145.128 38.2152 141.933 42.1561 141.933H69.7759C73.7172 141.933 76.9118 145.128 76.9118 149.07V195.664C76.9118 199.605 73.7172 202.8 69.7759 202.8" fill="#007848"/>
<path d="M43.7355 193.631H42.2061V151.559H43.7355V193.631Z" stroke="#171717" stroke-width="0.817204" stroke-miterlimit="10" stroke-linecap="round" stroke-linejoin="round"/>
<path d="M51.87 193.631H50.3406V151.559H51.87V193.631Z" stroke="#171717" stroke-width="0.817204" stroke-miterlimit="10" stroke-linecap="round" stroke-linejoin="round"/>
<path d="M60.0043 193.631H58.4749V151.559H60.0043V193.631Z" stroke="#171717" stroke-width="0.817204" stroke-miterlimit="10" stroke-linecap="round" stroke-linejoin="round"/>
<path d="M68.1385 193.631H66.6091V151.559H68.1385V193.631Z" stroke="#171717" stroke-width="0.817204" stroke-miterlimit="10" stroke-linecap="round" stroke-linejoin="round"/>
<path d="M8.72119 207.761H373" stroke="black" stroke-width="1.30461" stroke-miterlimit="10" stroke-linecap="round" stroke-linejoin="round"/>
</svg>
